<?xml version="1.0" encoding="UTF-8"?>
<!DOCTYPE svg PUBLIC "-//W3C//DTD SVG 1.1//EN" "http://www.w3.org/Graphics/SVG/1.1/DTD/svg11.dtd">
<!-- Creator: CorelDRAW 2018 (64-Bit) -->
<svg xmlns="http://www.w3.org/2000/svg" xml:space="preserve" width="64px" height="83px" version="1.1" style="shape-rendering:geometricPrecision; text-rendering:geometricPrecision; image-rendering:optimizeQuality; fill-rule:evenodd; clip-rule:evenodd"
viewBox="0 0 28.2 36.57"
 xmlns:xlink="http://www.w3.org/1999/xlink">
 <defs>
  <style type="text/css">
   <![CDATA[
    .str0 {stroke:#EB3D00;stroke-width:0.01;stroke-miterlimit:22.9256}
    .fil3 {fill:none}
    .fil0 {fill:#0093DD}
    .fil1 {fill:#1C3D84}
    .fil2 {fill:#DA251D}
   ]]>
  </style>
 </defs>
 <g id="Слой_x0020_1">
  <metadata id="CorelCorpID_0Corel-Layer"/>
  <g id="_1258174080">
   <polygon class="fil0" points="4.1,28.65 4.74,27.39 5.38,26.12 6.01,24.85 6.66,23.58 7.29,22.32 7.92,21.05 8.57,19.77 9.2,18.51 9.84,17.24 10.48,15.97 11.12,14.71 11.75,13.44 12.4,12.17 13.03,10.9 13.67,9.63 14.31,8.36 15.16,10.11 16.01,11.85 16.86,13.59 17.71,15.33 18.56,17.07 19.41,18.82 20.26,20.56 21.11,22.3 21.96,24.04 22.81,25.79 23.65,27.53 24.51,29.27 25.36,31.01 26.21,32.76 27.06,34.5 27.9,36.24 26.18,36.24 24.45,36.24 22.73,36.24 21,36.24 19.28,36.24 17.55,36.24 15.83,36.24 14.09,36.24 12.37,36.24 10.64,36.24 8.92,36.24 7.19,36.24 5.47,36.24 3.74,36.24 2.02,36.24 0.28,36.24 0.71,35.43 1.13,34.61 1.56,33.79 1.98,32.98 2.41,32.16 2.83,31.34 3.26,30.53 3.67,29.72 4.34,29.72 5,29.72 5.66,29.72 6.33,29.72 6.99,29.72 7.65,29.72 8.31,29.72 8.98,29.72 9.63,29.72 10.29,29.72 10.96,29.72 11.62,29.72 12.28,29.72 12.94,29.72 13.61,29.72 14.27,29.72 14.26,29.44 14.25,29.16 14.24,28.89 14.23,28.61 13.6,28.61 12.96,28.62 12.33,28.62 11.7,28.62 11.06,28.62 10.43,28.63 9.8,28.63 9.16,28.63 8.53,28.63 7.89,28.64 7.26,28.64 6.63,28.64 5.99,28.65 5.37,28.65 4.74,28.65 "/>
   <path class="fil1" d="M14.6 8.22l-0.58 0.29 0.58 0 -0.64 1.26 -0.64 1.28 -0.64 1.27 -0.63 1.26 -0.64 1.27 -0.64 1.27 -0.63 1.27 -0.65 1.26 -0.63 1.27 -0.64 1.28 -0.64 1.26 -0.64 1.27 -0.63 1.27 -0.65 1.26 -0.63 1.27 -0.64 1.27 -0.58 -0.29 0.63 -1.27 0.65 -1.27 0.63 -1.26 0.64 -1.27 0.64 -1.27 0.64 -1.27 0.63 -1.26 0.65 -1.28 0.63 -1.27 0.64 -1.26 0.64 -1.27 0.64 -1.27 0.64 -1.26 0.64 -1.27 0.63 -1.28 0.65 -1.27 0.57 0.01zm13.3 28.35l0 -0.66 -0.28 0.47 -0.86 -1.74 -0.84 -1.75 -0.85 -1.73 -0.85 -1.75 -0.86 -1.74 -0.85 -1.75 -0.84 -1.73 -0.85 -1.75 -0.85 -1.74 -0.86 -1.75 -0.84 -1.73 -0.85 -1.74 -0.85 -1.75 -0.85 -1.74 -0.86 -1.74 -0.84 -1.74 0.58 -0.29 0.85 1.74 0.86 1.74 0.84 1.75 0.85 1.74 0.85 1.74 0.85 1.74 0.86 1.75 0.84 1.74 0.85 1.75 0.85 1.73 0.85 1.75 0.85 1.74 0.85 1.74 0.85 1.74 0.85 1.74 0.85 1.75 -0.3 0.47zm-27.9 -0.48l0.58 0.3 -0.3 -0.48 1.74 0 1.72 0 1.73 0 1.72 0 1.73 0 1.72 0 1.73 0 1.72 0 1.74 0 1.72 0 1.73 0 1.72 0 1.73 0 1.72 0 1.73 0 1.72 0 0 0.66 -1.72 0 -1.73 0 -1.72 0 -1.73 0 -1.72 0 -1.73 0 -1.72 0 -1.74 0 -1.72 0 -1.73 0 -1.72 0 -1.73 0 -1.72 0 -1.73 0 -1.72 0 -1.74 0 -0.28 -0.48zm3.67 -6.7l0 0.65 0.3 -0.18 -0.22 0.41 -0.21 0.41 -0.21 0.41 -0.21 0.41 -0.22 0.41 -0.21 0.4 -0.2 0.41 -0.22 0.41 -0.21 0.41 -0.22 0.41 -0.2 0.39 -0.22 0.41 -0.21 0.41 -0.22 0.41 -0.2 0.41 -0.21 0.41 -0.58 -0.3 0.21 -0.41 0.21 -0.4 0.21 -0.41 0.22 -0.41 0.21 -0.41 0.21 -0.41 0.21 -0.41 0.22 -0.41 0.2 -0.4 0.22 -0.4 0.21 -0.41 0.21 -0.41 0.21 -0.41 0.21 -0.41 0.22 -0.41 0.21 -0.4 0.28 -0.18zm10.28 0.33l0.64 -0.01 -0.32 0.33 -0.66 0 -0.67 0 -0.66 0 -0.66 0 -0.66 0 -0.67 0 -0.66 0 -0.65 0 -0.67 0 -0.66 0 -0.66 0 -0.66 0 -0.67 0 -0.66 0 -0.66 0 -0.67 0 0 -0.65 0.67 0 0.66 0 0.66 0 0.67 0 0.66 0 0.66 0 0.66 0 0.67 0 0.65 0 0.66 0 0.67 0 0.66 0 0.66 0 0.66 0 0.67 0 0.66 0 -0.32 0.33zm0.28 -0.78l-0.01 -0.65 0.33 0.31 0 0.07 0 0.07 0.01 0.07 0 0.07 0 0.07 0 0.06 0.01 0.07 0 0.07 0 0.07 0 0.07 0.01 0.06 0 0.08 0 0.07 0 0.07 0.01 0.07 0 0.07 -0.64 0.01 -0.01 -0.06 0 -0.07 0 -0.07 0 -0.07 -0.01 -0.07 0 -0.06 0 -0.07 -0.01 -0.07 0 -0.07 0 -0.07 0 -0.07 -0.01 -0.07 0 -0.06 0 -0.08 0 -0.07 -0.01 -0.07 0.33 0.32zm-10.42 -0.43l0.58 0.29 -0.29 -0.47 0.63 0 0.63 0 0.63 -0.01 0.64 0 0.63 0 0.63 0 0.64 -0.01 0.63 0 0.64 0 0.63 -0.01 0.63 0 0.64 0 0.63 0 0.62 -0.01 0.64 0 0.63 0 0.01 0.65 -0.63 0 -0.64 0.01 -0.63 0 -0.63 0 -0.64 0 -0.63 0 -0.63 0 -0.64 0 -0.63 0.01 -0.64 0 -0.63 0 -0.63 0 -0.63 0.01 -0.63 0 -0.63 0 -0.64 0.01 -0.29 -0.47z"/>
   <polygon class="fil2" points="27.09,0 26.97,0.17 26.86,0.32 26.73,0.46 26.59,0.59 26.46,0.72 26.3,0.83 26.16,0.93 25.99,1.03 25.82,1.11 25.66,1.19 25.48,1.27 25.3,1.33 24.92,1.43 24.53,1.51 24.12,1.57 23.7,1.61 23.26,1.63 22.82,1.64 22.36,1.63 21.92,1.63 20.99,1.59 20.07,1.56 19.62,1.54 19.16,1.54 18.72,1.54 18.29,1.58 17.86,1.61 17.45,1.67 17.06,1.75 16.68,1.85 16.51,1.92 16.33,1.99 16.16,2.07 15.99,2.16 15.83,2.25 15.68,2.35 15.53,2.47 15.39,2.59 15.25,2.71 15.12,2.86 15.01,3 14.89,3.17 14.38,7.67 14.49,7.51 14.61,7.35 14.74,7.22 14.88,7.09 15.01,6.96 15.16,6.84 15.32,6.76 15.48,6.66 15.64,6.56 15.81,6.49 15.99,6.42 16.17,6.36 16.55,6.25 16.94,6.17 17.34,6.1 17.77,6.07 18.2,6.05 18.65,6.04 19.1,6.05 19.56,6.06 20.47,6.08 21.4,6.13 21.86,6.13 22.31,6.13 22.75,6.12 23.18,6.11 23.6,6.07 24.02,6.02 24.41,5.93 24.79,5.83 24.98,5.76 25.15,5.69 25.32,5.61 25.48,5.53 25.64,5.43 25.79,5.32 25.94,5.22 26.08,5.09 26.21,4.96 26.34,4.82 26.47,4.67 26.57,4.51 "/>
   <polyline class="fil3 str0" points="27.09,0 26.97,0.17 26.86,0.32 26.73,0.46 26.59,0.59 26.46,0.72 26.3,0.83 26.16,0.93 25.99,1.03 25.82,1.11 25.66,1.19 25.48,1.27 25.3,1.33 24.92,1.43 24.53,1.51 24.12,1.57 23.7,1.61 23.26,1.63 22.82,1.64 22.36,1.63 21.92,1.63 20.99,1.59 20.07,1.56 19.62,1.54 19.16,1.54 18.72,1.54 18.29,1.58 17.86,1.61 17.45,1.67 17.06,1.75 16.68,1.85 16.51,1.92 16.33,1.99 16.16,2.07 15.99,2.16 15.83,2.25 15.68,2.35 15.53,2.47 15.39,2.59 15.25,2.71 15.12,2.86 15.01,3 14.89,3.17 14.38,7.67 14.49,7.51 14.61,7.35 14.74,7.22 14.88,7.09 15.01,6.96 15.16,6.84 15.32,6.76 15.48,6.66 15.64,6.56 15.81,6.49 15.99,6.42 16.17,6.36 16.55,6.25 16.94,6.17 17.34,6.1 17.77,6.07 18.2,6.05 18.65,6.04 19.1,6.05 19.56,6.06 20.47,6.08 21.4,6.13 21.86,6.13 22.31,6.13 22.75,6.12 23.18,6.11 23.6,6.07 24.02,6.02 24.41,5.93 24.79,5.83 24.98,5.76 25.15,5.69 25.32,5.61 25.48,5.53 25.64,5.43 25.79,5.32 25.94,5.22 26.08,5.09 26.21,4.96 26.34,4.82 26.47,4.67 26.57,4.51 27.09,0 "/>
  </g>
 </g>
</svg>
